<svg width="24" height="25" viewBox="0 0 24 25" fill="none" xmlns="http://www.w3.org/2000/svg">
<path d="M13.691 0C13.1418 0 12.6733 0.200433 12.285 0.6016C11.8969 1.00284 11.7033 1.48627 11.7033 2.0516C11.7033 2.59868 11.8968 3.07235 12.285 3.47349C12.6733 3.87474 13.1418 4.07579 13.691 4.07579C14.2212 4.07579 14.6803 3.87474 15.0685 3.47349C15.4567 3.07235 15.651 2.59868 15.651 2.0516C15.651 1.48625 15.4568 1.00284 15.0685 0.6016C14.6804 0.200458 14.2212 0 13.691 0ZM17.9494 3.91172C18.0061 4.22174 18.0345 4.63158 18.0345 5.14221V6.2086H16.6432V8.86173C17.0408 8.80703 17.3625 8.78051 17.6087 8.78051L18.0346 8.80711V8.8618H18.0063V13.7579C18.0063 15.2898 18.2058 16.4115 18.6034 17.1227C19.1336 18.0709 20.0898 18.5446 21.4721 18.5446C22.4567 18.5446 23.2993 18.3626 24 17.9977V15.2625C23.5264 15.5726 22.9961 15.7273 22.4091 15.7273C21.576 15.7273 21.1598 15.1163 21.1598 13.8945V8.80701H22.3808C22.6081 8.80701 22.8496 8.81614 23.1053 8.8343C23.3609 8.85257 23.5356 8.8616 23.6302 8.8616V6.20848H21.1599V5.08737C21.1599 4.64977 21.1883 4.25811 21.2451 3.91157H17.9497L17.9494 3.91167L17.9494 3.91172ZM4.94217 6.07192C3.65454 6.07192 2.54715 6.48257 1.6192 7.30312C0.653584 8.17839 0.170281 9.27217 0.170281 10.5851C0.170281 11.4604 0.435134 12.2811 0.965306 13.0469C1.43868 13.7579 1.9787 14.2142 2.58464 14.4149V14.4696C1.9787 14.7246 1.67602 15.3633 1.67602 16.3844C1.67602 17.1686 1.99767 17.7515 2.64146 18.1344V18.1891C0.880556 18.7543 0 19.8027 0 21.3344C0 22.6657 0.58715 23.6418 1.76129 24.2617C2.68898 24.7541 3.87232 25 5.31139 25C8.81444 25 10.5661 23.5867 10.5661 20.7602C10.5661 18.9915 9.21195 17.9065 6.50404 17.5055C5.87924 17.4143 5.40622 17.1958 5.08429 16.8492C4.83812 16.6123 4.71512 16.3746 4.71512 16.1375C4.71512 15.4629 5.09367 15.0712 5.85087 14.9617C7.00594 14.7978 7.94825 14.2826 8.67736 13.4164C9.40637 12.5502 9.77094 11.5334 9.77094 10.3664C9.77094 10.0017 9.69526 9.60994 9.54384 9.19061C10.0363 9.08112 10.4144 8.98094 10.6796 8.88982V6.07182C9.4865 6.50949 8.43582 6.72882 7.52699 6.72882C6.7316 6.29122 5.87012 6.07182 4.94223 6.07182V6.07192H4.94217ZM12.0725 6.20863C12.1103 6.53681 12.1293 7.12983 12.1293 7.98673V16.4938C12.1293 17.3691 12.1103 17.9886 12.0725 18.3531H15.2818C15.2439 17.9338 15.225 17.259 15.225 16.329V7.93202C15.225 7.12971 15.2439 6.55505 15.2818 6.2086H12.0725V6.20863ZM5.05576 8.58833C5.62387 8.58833 6.06841 8.7987 6.39034 9.21803C6.65538 9.60111 6.78785 10.0564 6.78785 10.5852C6.78785 11.8617 6.21084 12.5 5.05576 12.5C3.86294 12.5 3.26613 11.8708 3.26613 10.6125C3.26613 9.26324 3.86294 8.58833 5.05576 8.58833ZM5.25452 19.7212C6.84522 19.7212 7.64053 20.1857 7.64053 21.1157C7.64053 22.1004 6.91142 22.593 5.45338 22.593C3.7871 22.593 2.95388 22.1184 2.95388 21.1703C2.95388 20.2038 3.72082 19.7211 5.25462 19.7211L5.25452 19.7212V19.7212Z" fill="white"/>
</svg>
